<svg xmlns="http://www.w3.org/2000/svg" viewBox="0 0 543.86 414.73"><defs><style>.cls-1{fill:#efb9cc;}.cls-2,.cls-3{fill:#fff;}.cls-3{font-size:35.1px;font-family:ShreeDev0714, "Shree Devanagari 714";letter-spacing:0.11em;}</style></defs><g id="Layer_1" data-name="Layer 1"><rect class="cls-1" x="27.68" y="145.95" width="100.81" height="122.17"/><path class="cls-2" d="M32.92,177.86c3.54.14,7.08.65,10.62.69,3.84,0,7.67-.1,11.51-.23,7.08-.25,14.16-.65,21.24-.91,7.37-.28,14.76-.52,22.13-.29,7,.22,14.2-.3,21.24-.55q43.44-1.51,86.87-3.12,86.52-3.24,173-6.6c16.27-.63,32.54-1.24,48.8-2s32.52-2.18,48.8-3c1.93-.1,2-3.08,0-3-7.39.22-14.78.47-22.18.6-7.1.12-14.2-.07-21.29.16-14.5.47-29,1-43.48,1.6q-43.48,1.7-87,3.33-86.49,3.25-173,6.51-12,.47-23.9,1c-8.27.37-16.5,1.23-24.78,1.61-8,.36-15.93.52-23.9.77-4.12.13-8.28.21-12.39.56s-8.24,1.15-12.39,1.62a.65.65,0,0,0,0,1.29Z"/><path class="cls-2" d="M60,247.61a8.15,8.15,0,0,1,1.3-1.06c.4-.19.86-.23,1.28-.44a9.73,9.73,0,0,0,2.72-2.1,47.82,47.82,0,0,0,4.29-5.61c2.65-3.84,5.17-7.77,7.65-11.72q7.38-11.75,14.2-23.82a66.49,66.49,0,0,0,3.59-7,20,20,0,0,0,1.34-3.7,20.12,20.12,0,0,1,1.3-3.73c.7-1.69-1.92-2.57-2.83-1.19-1.29,1.95-2.88,3.58-4.22,5.49a67.65,67.65,0,0,0-3.6,5.86q-3.42,6.1-7,12.12c-4.71,8-9.62,15.79-14.63,23.56a57.77,57.77,0,0,0-3.88,6.5,11.68,11.68,0,0,0-1.17,3.82c-.06.48.14.95.09,1.38a10.19,10.19,0,0,1-.58,1.53c0,.08.08.12.14.08Z"/><path class="cls-2" d="M153.76,186.55c.39,4.86-2.2,8.44-6.49,10.35-4.07,1.82-8.56,2.09-12.88,2.95-4.62.91-9.62,2.54-12.93,6.06a12.91,12.91,0,0,0-2,14.65c2.52,5.33,7.91,8.41,13.38,9.93,6.23,1.73,12.94,2.22,19.37,2.46,13.65.53,27.29-.9,40.89-1.83q41.55-2.85,83.22-3.74,41.49-.91,83-.17,20.74.34,41.49,1.07,10.54.36,21.07.81c6.91.29,13.83.26,20.73.45l10.2.31c2.92.1,2.86-4.28,0-4.5-13.6-1-27.18-2.09-40.8-2.62s-27.44-.95-41.16-1.25q-41-.9-82-.29-40.83.66-81.61,3.07c-13.49.81-27,2.08-40.46,2.65a161.29,161.29,0,0,1-20-.24c-5.68-.46-12.13-1-17.18-3.86-3.74-2.14-7.16-6.82-4.94-11.19,1.84-3.63,6.58-5,10.24-5.82,8.21-1.87,20.13-2.28,23.22-12a8.8,8.8,0,0,0-1.33-8.08c-.83-1.17-3.13-.92-3,.81Z"/><path class="cls-2" d="M165.7,210.08a6.5,6.5,0,0,0,1.18,7.19,2.34,2.34,0,0,0,2.29.6,45.5,45.5,0,0,0,5.8-2.16l-2.62-.69a2.3,2.3,0,0,1,.87,2c-.26,1.55.7,3.75,2.67,3.51,4.86-.61,9.72-1.27,14.59-1.93l-3.57-2.72c.25,4.76,5.21,6,9.09,4.59a11.92,11.92,0,0,0,4.84-3.83c1.1-1.26,2.28-3,4.11-2.79l-2.74-3.59c-.74,4.49,2.7,8,7.08,8.48s8.08-3,10.85-6l-4.06-4.06c-18.34,22.23-35.78,45.21-52.45,68.72q-24.8,35-47.19,71.54-12.68,20.71-24.56,41.91a3,3,0,1,0,5.1,3c15.93-21.43,32.65-42.26,49.75-62.77s34.52-40.65,52-60.82l54.09-62.52c8.82-10.2,17.59-20.45,26.83-30.28s18.88-18.86,28.61-28c19.41-18.18,38.26-36.92,56.32-56.45q3.33-3.59,6.61-7.21c2.55-2.81-1.61-7-4.18-4.18q-26.91,29.64-56,57.17C301.2,148,291.29,157,281.85,166.59S263.69,186.1,255,196.17q-27.12,31.31-54.21,62.66c-17.58,20.32-35.2,40.61-52.48,61.18S114.13,361.35,98,382.73q-3,4-6.07,8.09l5.1,3q21-37.4,44.41-73.3t49.27-70.13q14.42-19.1,29.48-37.66a3,3,0,0,0,0-4.06,2.89,2.89,0,0,0-4.06,0c-1.46,1.64-3.22,3.91-5.5,4.38-.75.15-3.06-.3-2.9-1.27a2.9,2.9,0,0,0-2.73-3.59c-4-.42-6.61,2.78-8.95,5.44a4.14,4.14,0,0,1-2.79,1.79,3.22,3.22,0,0,1-.54,0,3.62,3.62,0,0,1-.46,0c.22,0,.23,0,0,0s-.09-.05-.08-.05c.11.21.36.26.38.55a2.87,2.87,0,0,0-3.57-2.71c-4.61.62-9.23,1.25-13.83,1.92l3.41,3.4a7.82,7.82,0,0,0-2.4-7.28,2.82,2.82,0,0,0-3.26-.42,45.56,45.56,0,0,0-5.54,2.79h2.37a2.55,2.55,0,0,1-1.15-2.71c.17-1.49-2.28-2.16-2.88-.78Z"/><path class="cls-2" d="M364.79,87.4c3.76-2.33,7.25-5,11.56-6.32l-3-1.2c.86,1.17.12,2.48-.75,3.84-1.32,2.07-3,4-4.48,5.88l-9.77,12.6c-6.62,8.53-13.16,17.11-19.72,25.68S325.57,145,319,153.61c-6.43,8.4-13.27,16.64-18.95,25.58-3.25,5.1-6.92,9.87-10.33,14.86s-7.11,9.79-10.64,14.69c-.31.44.41,1,.76.58,7-8.47,13.8-17.17,21.14-25.36,3.7-4.14,7.37-8.27,10.78-12.65l10.11-13c13.63-17.48,27.35-34.9,40.87-52.47L374,91.26c3.06-4,7.84-9.71,3.51-14.54A2.53,2.53,0,0,0,375,76a28.82,28.82,0,0,0-7.11,4.16A15,15,0,0,0,365.09,83a12.34,12.34,0,0,0-1.7,3.38,1,1,0,0,0,1.4,1.07Z"/><path class="cls-2" d="M293.14,191.16a1.28,1.28,0,0,1,1.55-1.08c-.54-.12.72.3.74.32l.25-2c-5.22,5.72-6.19,14.37-5.08,21.76a2.3,2.3,0,0,0,3.37,1.37q6-4.22,12.06-8.4h-2.34c2.17,1.08,4.32,2.18,6.48,3.28a2.51,2.51,0,0,0,2.93-.38,18.4,18.4,0,0,1,6.91-4.55l-2.79-3.63A7.38,7.38,0,0,0,328.63,207l-3.95-3.05c-1.24,2.7-2.73,5.3-4,8a2.92,2.92,0,0,0,.23,3.19,2.81,2.81,0,0,0,3,1c3.69-1.55,7.34-3.16,11-4.77L330.58,208c-1.06,7,6.21,11.61,12.58,10,3.48-.85,6.38-3.06,9-5.38s5.07-4.55,7.83-6.57a75.08,75.08,0,0,1,18.74-10.05c3.16-1.14,6.69-2.35,10-1.3l.57.2.54.26a13.73,13.73,0,0,1,1.56.94c.11.07.66.48.31.21l.67.55q.7.63,1.38,1.29c2,2,3.71,4.15,5.62,6.17,2.1,2.22,4.69,4.88,8,4.26l-1.66-.21a12.45,12.45,0,0,0,4.77,1c2,0,2.57-3.23.49-3.62a10.28,10.28,0,0,1-3.08-1.13l.77.78a8,8,0,0,0-2-2.39c.45.36-.25-.22-.28-.24-.87-.74-1.71-1.52-2.5-2.34-1.66-1.72-3.16-3.58-4.79-5.32-3.94-4.23-8.77-7.25-14.77-6.53A40.12,40.12,0,0,0,373.54,192a83.82,83.82,0,0,0-9.2,4.58c-6,3.48-11.21,7.85-16.45,12.39a20.87,20.87,0,0,1-4,2.82,9.55,9.55,0,0,1-2.26.82c-1,.24.29,0-.57.07-.13,0-1.14,0-.82,0a5.49,5.49,0,0,1-1.43-.37,8.28,8.28,0,0,1-.83-.45,2.8,2.8,0,0,1-.66-.44,2.55,2.55,0,0,1-1-1.26c.24.52-.07-.33-.08-.37.16.69.07-.81,0-.21a3,3,0,0,0-4.33-3.32c-3.41,1.52-6.84,3-10.23,4.6l3.93,3.93c1.19-2.75,2.17-5.61,3.39-8.34a2.53,2.53,0,0,0-3.95-3.05c-2,1.67-4.73-.83-3.58-3,.91-1.75-.64-4.42-2.79-3.63a22.77,22.77,0,0,0-9,5.9l2.93-.38c-2.2-1-4.39-2.06-6.58-3.11a2.35,2.35,0,0,0-2.34,0c-4,2.84-8,5.64-12,8.44L295,209c-1-6.7,1.11-12.78,3.37-19a1.66,1.66,0,0,0-.74-1.84,2.74,2.74,0,0,0-3.69.34,2.92,2.92,0,0,0-.92,2.65,0,0,0,0,0,.09,0Z"/><path class="cls-2" d="M408.62,207.78c2.43-2.09,2.88-5.92,3.79-8.86,1-3.15,1.94-6.28,3.13-9.35a75,75,0,0,1,9.58-17.29,23.06,23.06,0,0,1,5.9-5.92,8.4,8.4,0,0,1,7.57-1c3.58,1,6.87,1.19,10.21-.68,2.85-1.59,5-4.13,7.22-6.49,2.92-3.15,5.84-6.31,8.71-9.51a116.58,116.58,0,0,0,8-10.73l-1.72.71c4.56,1.68-7.85,17.83-9.52,20-1.29,1.68-2.78,3.18-4.12,4.81s-2.58,3.22-3.83,4.86a45.71,45.71,0,0,0-3.56,5.07,21.13,21.13,0,0,0-2.26,5.9c-.22.94,1.06,1.9,1.76,1a51,51,0,0,0,3.17-4.18c1-1.5,1.87-3,2.79-4.56,1.86-3.06,3.89-6,5.76-9s4-5.91,5.91-8.93a82.27,82.27,0,0,0,5.2-9.54c1.12-2.44,2.54-6.33-.12-8.2a1.56,1.56,0,0,0-1.86.24,117.44,117.44,0,0,0-9,7.78c-2.77,2.84-5.46,5.76-8.15,8.67-2.16,2.33-4.29,5.16-7,6.82a5.29,5.29,0,0,1-3.18.9,36.65,36.65,0,0,1-4.69-1.1c-7.08-1.37-12.94,3.26-17.06,8.54a74.7,74.7,0,0,0-10.27,18,56,56,0,0,0-3.4,11c-.61,3.37-1.75,8.07.49,11a.39.39,0,0,0,.59.07Z"/><path class="cls-2" d="M479.61,160.91c3.7-7.78,6.87-15.78,10.3-23.68a209.83,209.83,0,0,1,11.63-23,133.8,133.8,0,0,1,8.06-12.1l-5.4-2.27q-8.86,22.72-16.89,45.78T472.12,192q-7.17,23.32-13.48,46.9c-4.23,15.8-8.31,31.67-11.51,47.72-1.63,8.12-3,16.3-3.89,24.53-.45,4.1-.75,8.21-.85,12.33s-.51,8.56.81,12.38a21,21,0,0,1,.81,2.39c.21,1,.27,2,.41,3,.18,1.22,2.18.92,2.14-.29a25.69,25.69,0,0,1-.05-2.91c.09-1,.52-2.06.68-3.1a46,46,0,0,0,.34-6.1c.06-4.12.32-8.23.65-12.33a207.61,207.61,0,0,1,3.42-23.82c3.18-16,7.37-31.78,11.52-47.53q6.15-23.36,13.16-46.49t14.85-46q7.88-23,16.6-45.63,1.08-2.81,2.17-5.6a2.93,2.93,0,0,0-1.71-3.49,3,3,0,0,0-3.69,1.21c-10.48,14-17.69,30-23.87,46.23-1.76,4.62-3.27,9.31-4.64,14-.61,2.1,2.63,3.59,3.62,1.53Z"/><path class="cls-2" d="M447,340.71c.37-1.17,1.09-2.41,1-3.64-.16-1.68-.54-3.37-.8-5-.47-3-.85-6.1-1.22-9.16-.73-6.19-1.58-12.36-2.31-18.54-1.47-12.41-2.65-24.84-3.33-37.31a461.74,461.74,0,0,1,.92-64.53,413.65,413.65,0,0,1,10.32-63.15,363.37,363.37,0,0,1,20.34-60.27c4.34-9.81,9.26-19.32,14.18-28.84a270.13,270.13,0,0,1,16.3-27.4q2.2-3.24,4.49-6.44c1.11-1.55-1.49-3.59-2.67-2.06C491,31.31,479.16,49.47,470,69a366.08,366.08,0,0,0-22.17,60.92,417.39,417.39,0,0,0-11.74,64.2,454.64,454.64,0,0,0-2.1,65.07q.7,18.39,2.84,36.68c.73,6.34,1.56,12.7,2.66,19,1.07,6.14,2.51,12.2,3.85,18.28.34,1.54.62,3.12,1.06,4.63.35,1.19,1.52,2.11,2.33,3a.15.15,0,0,0,.25-.06Z"/><path class="cls-2" d="M215.33,212.41c1.15-.13,2.22,0,3.36-.13a10,10,0,0,0,3.92-1.52,2.72,2.72,0,0,0-2.08-4.95A3.87,3.87,0,0,0,219,212.3c2.39,2.32,6.31.37,6.89-2.61a2.86,2.86,0,0,0-1.27-3.11,2.77,2.77,0,0,0-3.34.43c-2.25,2.74-4.58,5.44-6.74,8.26-1,1.35-1.94,2.78-3,4.1s-2.3,2.74-3.24,4.22c-.44.69-.9,1.38-1.31,2.09s-.58,1.54-1,2.25a43.47,43.47,0,0,1-3.15,4.48l-6.7,8.38c-.5.64.37,1.55.92.91l6.77-7.95c1.13-1.33,2.37-2.54,3.6-3.78a12.34,12.34,0,0,1,2-1.52,21.57,21.57,0,0,0,2-1.83,41.67,41.67,0,0,0,3.34-3.68c1.14-1.32,2.38-2.52,3.54-3.82,2.39-2.65,4.59-5.47,6.87-8.22l-4.61-2.68c-.1.38-.09.42,0,.12.37-.87,1.21-.76,2.5.35.23.46-.42,1.93.07,1.29l-1,1L222,211l-2.09-4.94A10.81,10.81,0,0,0,216.8,209a5.6,5.6,0,0,0-.73,1.52,7,7,0,0,1-.84,1.72.11.11,0,0,0,.1.17Z"/><path class="cls-2" d="M148.34,197.52a18.79,18.79,0,0,1-6.56,1.63,19.89,19.89,0,0,1-3,0c-1.14-.07-2.19-.59-3.37-.59-4.75,0-9.36,3.3-12.93,6.12s-6.49,6.7-6.22,11.43,3.25,8.89,7.13,11.48,9,3.73,13.63,4.56c1.89.34,6.33-.22,5.14-3.18-1-2.52-4.53-2.73-6.79-3.22-4.11-.88-8.66-2.09-11.39-5.55a6.78,6.78,0,0,1,0-9.07c3-3.7,7.51-6.28,11.87-7.89,1.15-.42,2.11-1.24,3.28-1.55s2.43-.55,3.68-.77a12.8,12.8,0,0,0,6.14-2.59c.48-.38-.13-1.05-.62-.81Z"/><path class="cls-2" d="M146.46,199a3.77,3.77,0,0,1-1.06,0l0,0q-.21.15-.3-.33a5,5,0,0,0-1.83-1,15.57,15.57,0,0,0-4.13-.73,20.58,20.58,0,0,0-7.82,1.1,27,27,0,0,0-12.67,8.5c-3.81,4.68-5.89,10.51-3.22,16.27,2.32,5,7.38,8.19,12.59,9.51a31.64,31.64,0,0,0,5.21.86,45.53,45.53,0,0,0,5-.14c1.85,0,3.59-.55,5.42-.47s3.69.45,5.38-.09c1-.33,1.53-2.06.34-2.57-2.6-1.12-5.57-.34-8.24-1.26a33.49,33.49,0,0,0-4.25-.63c-1.25-.25-2.45-.57-3.71-.75-4.41-.64-9.16-2-11.7-5.85a7,7,0,0,1-1.29-5.17,12.45,12.45,0,0,1,2.82-5.67,21.38,21.38,0,0,1,10.48-7,30,30,0,0,1,7-1.17c1.39-.07,3.07,0,4.24-.87.45-.34.62-.82,1-1.21a4.89,4.89,0,0,0,.95-1.07.16.16,0,0,0-.14-.25Z"/><path class="cls-2" d="M135.52,200.11a11.35,11.35,0,0,0,1.79-.36,4.06,4.06,0,0,1,2,.28l-.68-.4a5.86,5.86,0,0,0,1,.77,4.69,4.69,0,0,0,1.47.38,15,15,0,0,0,2.68,0,17.73,17.73,0,0,0,4.86-.75,5.54,5.54,0,0,0,2.2-1.31,18.68,18.68,0,0,0,1.1-1.54c.4-.48,1-.85,1.37-1.34a12.27,12.27,0,0,0,1.27-1.78,1,1,0,0,0-1.51-1.17,1.52,1.52,0,0,0-.48.74.54.54,0,0,0,.24.6,1.14,1.14,0,0,0,.67.27l-.58-1.41a5.78,5.78,0,0,1-1.79,1.69l-.48.28c-.58.33.1,0-.21,0s-.69-.06-1.13-.06c-1.7,0-3.6.72-5.53.91a30,30,0,0,0-3.15.33,3.32,3.32,0,0,0-1.68.79c-.31.46-.4.56-.27.31s.06-.13-.06-.05l-.42.17c-1,.38-3.06.95-2.92,2.4a.2.2,0,0,0,.19.19Z"/><path class="cls-2" d="M140.68,199.79c.38-.15.81-.17,1.2-.3s.73-.2,1.11-.28a16.91,16.91,0,0,1,2.45-.4,11,11,0,0,0,4.6-1.24,11.12,11.12,0,0,0,3.44-2.72,12,12,0,0,0,1.29-1.88,5.09,5.09,0,0,0,.4-1,1.86,1.86,0,0,0,0-1.12.48.48,0,0,0-.69-.28,4.37,4.37,0,0,0-1.36,1.44,12.73,12.73,0,0,1-4.63,4,17.29,17.29,0,0,1-2,.74c-.75.25-1.44.6-2.18.86a18.52,18.52,0,0,0-2.06.84,7.78,7.78,0,0,0-.89.5,6.91,6.91,0,0,0-.77.76s0,.12.05.1Z"/><path class="cls-2" d="M322.74,202.68a4.81,4.81,0,0,0,6.27,1.44l-1.28-1.27a6.58,6.58,0,0,0-1.47,4.25,3.52,3.52,0,0,0,2.21,3,4.69,4.69,0,0,0,2.86-.26c.56-.17.66-.19,1.17-.33a5.71,5.71,0,0,0,.93-.5c.07,0,.92-.45.53-.27.34-.15.57.07.13,0a8.67,8.67,0,0,0-1-.44c-.31,0,.06-.6-.06.07.08-.47,0,.43,0,.48a6.28,6.28,0,0,0,2.1,4.43c2.91,2.41,6.67,1.74,9.71,0s6-3.85,9.15-5.61,6.09-3.31,9.18-4.86,6.24-2.93,9.42-4.29a65.44,65.44,0,0,1,9.73-3.72,16.89,16.89,0,0,1,11,.79,32.39,32.39,0,0,1,9.1,6.3,2.73,2.73,0,0,0,4.21-.55c1.35-1.95,2.47-4.08,3.7-6.12s2.57-4.21,3.9-6.29c2.61-4.08,5.28-8.14,8-12.12l-5.06-3c-3.13,6.3-6.22,12.62-9.36,18.91-1.51,3-3.52,6.12-3.8,9.54a7.68,7.68,0,0,0,1,4.47c.9,1.48,2.49,1.79,4.07,2l-.93-.25.29.15a1.89,1.89,0,0,0,1.92,0c5.62-3.62,7.65-10.58,9.7-16.57,1.18-3.45,2.55-6.84,4.05-10.16.38-.84.79-1.66,1.16-2.49a19.6,19.6,0,0,0,.62-2.81,21.87,21.87,0,0,1,1.12-2.53,27.44,27.44,0,0,0,1.05-2.92,1.22,1.22,0,0,0-2-1.18,29,29,0,0,0-3.34,4.23,20.61,20.61,0,0,1-1.73,1.89,11,11,0,0,0-1.47,2.59A92.21,92.21,0,0,0,415.25,189c-2,5.72-3.17,11.8-7.12,16.6l1.85-.49c.36.06.29.52.41.2a1.66,1.66,0,0,0-.15-.6c-.18-.59-.45-.94-.56-1.41a5.2,5.2,0,0,1,.46-2.65c1.1-2.74,2.67-5.35,4-8,2.7-5.32,5.46-10.61,8.17-15.92a2.93,2.93,0,0,0-5.06-3c-2.8,4-5.5,8-8,12.13S404,194.16,402,198.55l3.67-1c-5.34-3.21-10.95-7.18-17.4-7.41-3.49-.13-6.88.83-10.23,1.68s-6.39,1.72-9.51,2.83a121.87,121.87,0,0,0-18.52,8.38c-2.91,1.64-5.66,3.57-8.57,5.2a3.31,3.31,0,0,1-2.37.58c.42.15-.47-.26-.44-.25s.19.14.24.3a5.82,5.82,0,0,1-.14-.6c0,.24,0,.18,0-.18s-.09-.72-.14-1.08a4.15,4.15,0,0,0-7.32-2,11.33,11.33,0,0,0-1.14,1.43c-.13.24-.28.94-.56,1.11-.53.31-.94-.29-1.08-.74-.3-1,.39-2.15.83-3s-.46-1.85-1.27-1.28a4.74,4.74,0,0,1-5.19,0,.11.11,0,0,0-.14.15Z"/><path class="cls-2" d="M452.46,175.47c-1.76-1.54-4,.15-5,1.84a21,21,0,0,0-1.61,4.43,35.8,35.8,0,0,0-1.21,5.11,29.91,29.91,0,0,0,3,18.43c2.87,5.41,7.45,9.19,12.66,12.23a59.88,59.88,0,0,0,16.93,6.56,109.84,109.84,0,0,0,20.12,2.59c.84,0,.81-1.21,0-1.29a91.5,91.5,0,0,1-31-8.75c-4.55-2.21-9.5-4.91-12.73-8.91s-4-9-4.07-14a60.22,60.22,0,0,1,.87-9.76c.25-1.59.6-3.15.86-4.73.14-.87.08-3,1.11-3.36a.26.26,0,0,0,.11-.43Z"/><path class="cls-2" d="M446.5,227.64c2.12-1.52,3.45-4.24,4.73-6.45,1.38-2.37,2.66-4.8,3.88-7.26q3.63-7.26,7.21-14.54c2.38-4.86,4.77-9.71,7.11-14.6s4.94-9.84,7.09-14.89a44.58,44.58,0,0,0,3.07-8.53,23.26,23.26,0,0,1,1.5-4.42c.64-1.54,1.21-3.1,1.87-4.64.34-.79-.75-1.5-1.19-.7a66.14,66.14,0,0,1-4.22,7.06c-.8,1.09-1.78,2-2.51,3.15s-1.44,2.42-2.15,3.64c-2.73,4.68-5,9.58-7.45,14.4-4.94,9.72-9.74,19.51-14.51,29.32-1.34,2.76-2.72,5.52-3.89,8.36-.59,1.45-1.23,2.88-1.74,4.36a12.75,12.75,0,0,0-1.05,4.45,1.51,1.51,0,0,0,2.25,1.29Z"/><path class="cls-2" d="M296.19,189.59l.06.09-.13-1a4.58,4.58,0,0,0-.09,1,1.27,1.27,0,0,0,1.25,1.25,1.26,1.26,0,0,0,.89-.37,1.42,1.42,0,0,0,.36-.88l0-.17,0,.33c.12-.72.38-1.41.54-2.12.08-.36.16-.72.25-1.07a8.08,8.08,0,0,0,.14-1.3,1,1,0,0,0-.75-1,1.05,1.05,0,0,0-1.15.47,6.8,6.8,0,0,0-.61,1.24c-.11.35-.23.7-.33,1-.22.72-.29,1.49-.53,2.21l2.42.67a3.25,3.25,0,0,1,.17-.61l-.92.92.08,0a1.79,1.79,0,0,0,.75-.52,1.32,1.32,0,0,0,.28-.68,1.41,1.41,0,0,0-.86-1.51,1.43,1.43,0,0,0-1.8,2Z"/><path class="cls-2" d="M327,207.28a2,2,0,0,0,.37-.35l-.76.21.13,0a2.8,2.8,0,0,0,1.69-.13,2.93,2.93,0,0,0,1.23-1.06,3.09,3.09,0,0,0,.39-.87,2.47,2.47,0,0,0,0-1.4,2.66,2.66,0,0,0-3.85-1.56,4.73,4.73,0,0,1-.45.23l.63-.27a4.49,4.49,0,0,1-1.07.3l.7-.09a4.9,4.9,0,0,1-1.21,0l.69.09a3.31,3.31,0,0,0-1.74.05,3.58,3.58,0,0,0-.73.29,3.14,3.14,0,0,0-.91.94l1.36-.17s-.24-.22-.22-.18L322,204.58a1.86,1.86,0,0,0,.54.24,1.7,1.7,0,0,1,.39.09.88.88,0,0,0,1.07-1.38c.09.1-.14-.22-.17-.25a2.27,2.27,0,0,0-.42-.33c-.06,0-.05,0,0,0l-.12-.1-.22-.21c-.16-.15-.34-.29-.5-.45l-.21-.23c-.15-.16.05.08-.09-.11-.24-.34-.49-.67-.71-1s-.34-.75-.54-1.12a.42.42,0,0,0-.71,0,3.61,3.61,0,0,0,.15,3.26,4.55,4.55,0,0,0,1.18,1.43,4.48,4.48,0,0,0,.61.39,2.31,2.31,0,0,0,.55.21.77.77,0,0,0,.37,0c.28-.06.34-.06.19,0l.23-1.73a2.63,2.63,0,0,1-.41-.21,2.39,2.39,0,0,0-.74-.2.91.91,0,0,0-.87.67.92.92,0,0,0,.41,1l.16.11.25.18-.4-1a2.52,2.52,0,0,0,.55,2.59,2.75,2.75,0,0,0,1.34.88,6.48,6.48,0,0,0,1.7.19,7.08,7.08,0,0,0,3.24-.88l-3.85-3a3.15,3.15,0,0,0-.15,1,2.51,2.51,0,0,0,1.28,2.23l.29.16-.39-.68a3.85,3.85,0,0,0,.09.67.54.54,0,0,0,.88.23Z"/><text class="cls-3" transform="translate(242.96 257.72)">STUDIOS</text></g></svg>