<svg xmlns="http://www.w3.org/2000/svg" width="195" height="154.226" viewBox="0 0 195 154.226">
  <g id="Layer_2" data-name="Layer 2" transform="translate(0 0.012)">
    <g id="Layer_4" data-name="Layer 4" transform="translate(0 53.421)">
      <rect id="Rectangle_41" data-name="Rectangle 41" width="40.758" height="49.394" fill="#1db5d9"/>
    </g>
    <g id="Layer_4-2" data-name="Layer 4" transform="translate(2.022 49.378)">
      <rect id="Rectangle_41-2" data-name="Rectangle 41" width="40.758" height="49.394" transform="translate(0 2.426)" fill="#0d0d0d"/>
      <rect id="Rectangle_42" data-name="Rectangle 42" width="40.758" height="49.394" transform="translate(2.426 0)" fill="#f1309c"/>
    </g>
    <g id="Layer_2-2" data-name="Layer 2" transform="translate(1.848 -0.012)">
      <path id="Path_14" data-name="Path 14" d="M4.841,152.729c1.431.057,2.862.259,4.294.271,1.548,0,3.1-.036,4.654-.089,2.862-.105,5.725-.263,8.587-.372,2.98-.113,5.967-.21,8.947-.113,2.83.089,5.741-.125,8.587-.222q17.563-.61,35.122-1.261,34.98-1.31,69.944-2.668c6.578-.259,13.156-.505,19.73-.809s13.148-.881,19.73-1.213c.776-.04.784-1.237,0-1.213-2.988.089-5.976.19-8.967.243-2.871.049-5.741-.028-8.608.065q-8.794.285-17.579.647-17.579.683-35.174,1.346-34.968,1.314-69.944,2.632-4.852.19-9.663.4c-3.344.154-6.671.5-10.019.651-3.234.146-6.441.21-9.663.311-1.666.053-3.348.085-5.009.226s-3.331.461-5.009.651a.263.263,0,0,0,0,.522Z" transform="translate(-4.57 -86.395)" fill="#fff"/>
      <path id="Path_15" data-name="Path 15" d="M32.257,197.468a2.965,2.965,0,0,1,.53-.429c.162-.081.348-.093.513-.182a4.01,4.01,0,0,0,1.1-.849,19.332,19.332,0,0,0,1.734-2.268c1.071-1.553,2.09-3.141,3.093-4.738q2.984-4.751,5.741-9.63a27.262,27.262,0,0,0,1.451-2.83,8.272,8.272,0,0,0,.542-1.5,8.281,8.281,0,0,1,.522-1.492c.283-.679-.764-1.031-1.132-.477-.522.784-1.164,1.447-1.71,2.22a26.555,26.555,0,0,0-1.451,2.369q-1.383,2.462-2.83,4.9c-1.9,3.234-3.889,6.384-5.915,9.525a23,23,0,0,0-1.569,2.628,4.8,4.8,0,0,0-.473,1.54c-.024.194.053.4.032.554a4.007,4.007,0,0,1-.235.623.034.034,0,0,0,.053.032Z" transform="translate(-21.029 -102.934)" fill="#fff"/>
      <path id="Path_16" data-name="Path 16" d="M104.81,171.833a4.057,4.057,0,0,1-2.624,4.189,23.894,23.894,0,0,1-5.211,1.193,9.594,9.594,0,0,0-5.224,2.45,5.207,5.207,0,0,0-.809,5.915,8.124,8.124,0,0,0,5.406,4.015,34.748,34.748,0,0,0,7.831.995,154.683,154.683,0,0,0,16.532-.74q16.8-1.152,33.646-1.512,16.774-.376,33.557-.073,8.389.146,16.774.437,4.265.146,8.519.327c2.794.117,5.587.1,8.381.182l4.124.125c1.177.036,1.148-1.722,0-1.811-5.5-.4-10.989-.845-16.5-1.059s-11.094-.384-16.641-.505q-16.576-.364-33.153-.117-16.508.267-32.991,1.241c-5.454.327-10.916.841-16.358,1.071a65.2,65.2,0,0,1-8.086-.1c-2.3-.186-4.908-.4-6.946-1.565-1.5-.857-2.915-2.765-2-4.528.76-1.468,2.652-2.022,4.144-2.353,3.315-.756,8.135-.922,9.384-4.852a3.542,3.542,0,0,0-.538-3.259c-.332-.473-1.257-.372-1.213.323Z" transform="translate(-55.679 -101.985)" fill="#fff"/>
      <path id="Path_17" data-name="Path 17" d="M93.8,119.176a2.62,2.62,0,0,0,.477,2.9.938.938,0,0,0,.922.243,18.626,18.626,0,0,0,2.345-.873l-1.055-.279a.938.938,0,0,1,.352.809c-.105.623.283,1.512,1.071,1.411,1.969-.247,3.934-.513,5.9-.776l-1.435-1.1c.1,1.92,2.106,2.426,3.671,1.848A4.823,4.823,0,0,0,108,121.82c.445-.509.922-1.213,1.662-1.132l-1.1-1.443a3.014,3.014,0,0,0,2.858,3.424c1.771.19,3.263-1.213,4.383-2.426l-1.617-1.637c-7.415,8.992-14.466,18.283-21.206,27.784Q82.956,160.54,73.9,175.313q-5.135,8.369-9.934,16.928a1.193,1.193,0,0,0,2.054,1.213c6.441-8.664,13.2-17.086,20.114-25.378s13.956-16.435,21.024-24.59l21.869-25.277c3.566-4.124,7.112-8.268,10.847-12.242s7.633-7.625,11.567-11.32C159.3,87.3,166.9,79.72,174.2,71.824q1.346-1.451,2.672-2.915c1.027-1.132-.651-2.83-1.682-1.682q-10.88,11.984-22.641,23.114c-3.946,3.728-7.957,7.391-11.769,11.256s-7.358,7.884-10.88,11.959q-10.965,12.659-21.917,25.317c-7.1,8.215-14.227,16.419-21.218,24.735s-13.8,16.714-20.344,25.354q-1.237,1.617-2.454,3.271l2.054,1.213q8.49-15.113,17.955-29.635t19.932-28.35q5.822-7.714,11.919-15.226a1.213,1.213,0,0,0,0-1.637,1.168,1.168,0,0,0-1.617,0,4.754,4.754,0,0,1-2.228,1.775c-.3.061-1.245-.113-1.181-.522a1.168,1.168,0,0,0-1.1-1.443c-1.6-.17-2.664,1.124-3.61,2.2a1.682,1.682,0,0,1-1.132.724h-.4a.073.073,0,0,1-.036-.02c.044.081.146.1.15.218a1.156,1.156,0,0,0-1.435-1.092c-1.864.251-3.728.505-5.591.776l1.371,1.371a3.146,3.146,0,0,0-.962-2.939,1.144,1.144,0,0,0-1.318-.17,18.721,18.721,0,0,0-2.24,1.128h.958a1.031,1.031,0,0,1-.469-1.1.626.626,0,0,0-1.156-.315Z" transform="translate(-39.853 -39.814)" fill="#fff"/>
      <path id="Path_18" data-name="Path 18" d="M286.014,66.778a19.975,19.975,0,0,1,4.674-2.559l-1.189-.485c.348.477.044,1.011-.3,1.561-.534.833-1.213,1.593-1.811,2.377l-3.954,5.094c-2.672,3.449-5.317,6.918-7.969,10.382s-5.3,6.934-7.953,10.4c-2.6,3.4-5.365,6.728-7.661,10.338-1.314,2.066-2.8,3.99-4.18,6.008s-2.875,3.958-4.3,5.939c-.125.178.166.4.307.234,2.83-3.424,5.583-6.938,8.543-10.257,1.5-1.674,2.98-3.344,4.358-5.11l4.087-5.256c5.511-7.067,11.058-14.11,16.524-21.214l4.544-5.9c1.237-1.617,3.17-3.922,1.423-5.874a1.031,1.031,0,0,0-1.027-.271,11.5,11.5,0,0,0-2.871,1.682,6.158,6.158,0,0,0-1.116,1.108,5.113,5.113,0,0,0-.691,1.367.4.4,0,0,0,.566.433Z" transform="translate(-151.567 -37.017)" fill="#fff"/>
      <path id="Path_19" data-name="Path 19" d="M263.711,175.223a.518.518,0,0,1,.627-.437c-.222-.049.3.117.3.129l.105-.809c-2.1,2.333-2.5,5.794-2.054,8.794a.926.926,0,0,0,1.354.554q2.426-1.706,4.876-3.4h-.946c.877.433,1.751.881,2.62,1.322a1,1,0,0,0,1.181-.15,7.4,7.4,0,0,1,2.8-1.84l-1.124-1.464a2.976,2.976,0,0,0,4.6,3.671l-1.589-1.213c-.5,1.092-1.1,2.139-1.617,3.234a1.181,1.181,0,0,0,.093,1.286,1.136,1.136,0,0,0,1.213.4c1.488-.623,2.964-1.274,4.447-1.924l-1.743-1.338c-.429,2.83,2.511,4.69,5.082,4.043a8.881,8.881,0,0,0,3.639-2.175c1.063-.938,2.05-1.84,3.166-2.656a30.382,30.382,0,0,1,7.581-4.063,6.393,6.393,0,0,1,4.043-.526,2.056,2.056,0,0,0,.234.077c-.073-.028.166.081.214.109a5.066,5.066,0,0,1,.635.38c.04.028.263.194.125.085.093.073.182.15.267.222.194.17.38.344.562.522.809.809,1.5,1.678,2.272,2.495.845.9,1.892,1.969,3.234,1.722l-.667-.089a4.924,4.924,0,0,0,1.924.4c.809,0,1.031-1.294.2-1.451a4.293,4.293,0,0,1-1.249-.457l.311.311a2.129,2.129,0,0,0-.323-.473,2.021,2.021,0,0,0-.5-.489c.182.146-.1-.089-.113-.1-.352-.3-.691-.615-1.011-.95-.671-.691-1.278-1.443-1.937-2.151-1.593-1.706-3.542-2.927-5.971-2.636a16.209,16.209,0,0,0-4.371,1.35,33.523,33.523,0,0,0-3.72,1.852,43.468,43.468,0,0,0-6.651,5.009,8.565,8.565,0,0,1-1.617,1.14,3.892,3.892,0,0,1-.918.332c-.4.1.113,0-.23.028h-.332a2.256,2.256,0,0,1-.582-.15c-.113-.053-.226-.117-.336-.182a1.214,1.214,0,0,1-.267-.178,1.01,1.01,0,0,1-.4-.509c.093.206-.028-.137-.032-.154.061.275.024-.327,0-.085a1.213,1.213,0,0,0-1.738-1.338c-1.383.615-2.765,1.213-4.136,1.86l1.581,1.581c.477-1.112.877-2.268,1.371-3.368a1.019,1.019,0,0,0-1.589-1.213.979.979,0,0,1-1.456-1.233c.368-.708-.255-1.783-1.124-1.464a9.121,9.121,0,0,0-3.639,2.385l1.177-.154c-.885-.4-1.775-.833-2.66-1.257a.946.946,0,0,0-.942,0q-2.426,1.716-4.852,3.412l1.354.554c-.4-2.7.437-5.179,1.367-7.682a.659.659,0,0,0-.3-.74,1.1,1.1,0,0,0-1.488.133,1.181,1.181,0,0,0-.372,1.071h.036Z" transform="translate(-158.233 -103.512)" fill="#fff"/>
      <path id="Path_20" data-name="Path 20" d="M379.816,151.047c.987-.841,1.164-2.4,1.532-3.586.4-1.27.784-2.535,1.265-3.78a30.046,30.046,0,0,1,3.873-6.986,9.356,9.356,0,0,1,2.385-2.4,3.4,3.4,0,0,1,3.065-.4,5.124,5.124,0,0,0,4.124-.275,12.856,12.856,0,0,0,2.919-2.624c1.181-1.274,2.361-2.551,3.521-3.845a52.2,52.2,0,0,0,3.234-4.334l-.7.283c1.844.7-3.17,7.2-3.849,8.086-.522.679-1.124,1.286-1.666,1.945s-1.043,1.3-1.548,1.965a19.616,19.616,0,0,0-1.439,2.05,8.666,8.666,0,0,0-.914,2.385c-.089.38.429.768.712.4a20.5,20.5,0,0,0,1.278-1.686c.4-.606.756-1.213,1.132-1.848.748-1.213,1.573-2.426,2.325-3.639s1.617-2.389,2.393-3.61a33.588,33.588,0,0,0,2.1-3.861c.449-.978,1.027-2.559-.053-3.311a.639.639,0,0,0-.748.1c-1.213,1.035-2.523,2-3.639,3.15s-2.207,2.325-3.3,3.5a14.627,14.627,0,0,1-2.85,2.761,2.13,2.13,0,0,1-1.286.364,14.658,14.658,0,0,1-1.9-.445c-2.862-.554-5.232,1.318-6.873,3.449a30.146,30.146,0,0,0-4.152,7.257,22.644,22.644,0,0,0-1.375,4.447c-.247,1.358-.708,3.267.19,4.447a.158.158,0,0,0,.239.028Z" transform="translate(-227.653 -72.607)" fill="#fff"/>
      <path id="Path_21" data-name="Path 21" d="M429.675,109.448c1.5-3.145,2.782-6.38,4.168-9.57a84.1,84.1,0,0,1,4.7-9.319,54.42,54.42,0,0,1,3.263-4.892l-2.175-.922q-3.582,9.186-6.829,18.509T426.659,122q-2.9,9.432-5.45,18.962c-1.71,6.388-3.36,12.808-4.654,19.293-.659,3.283-1.213,6.59-1.573,9.918-.182,1.658-.3,3.319-.344,4.985a14.655,14.655,0,0,0,.328,5.005,8.423,8.423,0,0,1,.323.962c.081.4.109.809.166,1.213.073.493.881.372.865-.117a10.4,10.4,0,0,1-.024-1.177c.04-.425.21-.833.271-1.253a18.588,18.588,0,0,0,.142-2.466c.024-1.666.129-3.327.263-4.985a84.122,84.122,0,0,1,1.383-9.635c1.286-6.469,2.98-12.849,4.658-19.212q2.486-9.449,5.321-18.8t6-18.6q3.186-9.3,6.711-18.448c.287-.756.582-1.512.877-2.268a1.181,1.181,0,0,0-.691-1.4,1.213,1.213,0,0,0-1.484.489c-4.237,5.66-7.152,12.129-9.651,18.691-.712,1.864-1.322,3.76-1.876,5.66-.247.845,1.059,1.447,1.451.615Z" transform="translate(-248.815 -49.971)" fill="#fff"/>
      <path id="Path_22" data-name="Path 22" d="M411.358,132.159a4.374,4.374,0,0,0,.4-1.468c-.065-.679-.218-1.362-.323-2.021-.194-1.237-.348-2.47-.493-3.711-.3-2.5-.639-4.993-.938-7.492-.594-5.017-1.067-10.043-1.346-15.089a186.012,186.012,0,0,1,.376-26.086,167.291,167.291,0,0,1,4.172-25.536,146.534,146.534,0,0,1,8.224-24.367c1.755-3.966,3.744-7.807,5.733-11.656a108.03,108.03,0,0,1,6.574-11.1c.594-.877,1.213-1.747,1.815-2.608.445-.623-.6-1.439-1.071-.809a118.9,118.9,0,0,0-13.815,22.079,148.139,148.139,0,0,0-8.963,24.63,168.761,168.761,0,0,0-4.747,25.956,183.817,183.817,0,0,0-.849,26.308q.287,7.435,1.148,14.826c.3,2.567.631,5.135,1.075,7.682.433,2.482,1.015,4.932,1.557,7.391.138.623.251,1.261.429,1.876a3.909,3.909,0,0,0,.938,1.233.061.061,0,0,0,.1-.028Z" transform="translate(-243.682 0.012)" fill="#fff"/>
      <path id="Path_23" data-name="Path 23" d="M176.147,194.642c.465-.053.9,0,1.354-.057a4,4,0,0,0,1.589-.619,1.1,1.1,0,0,0-.841-1.989,1.561,1.561,0,0,0-.607,2.616,1.725,1.725,0,0,0,2.778-1.055,1.144,1.144,0,0,0-.513-1.249,1.112,1.112,0,0,0-1.342.17c-.91,1.112-1.852,2.2-2.725,3.344-.4.542-.784,1.12-1.213,1.658a20.339,20.339,0,0,0-1.31,1.706c-.178.275-.364.558-.53.841s-.239.623-.4.91a18.7,18.7,0,0,1-1.274,1.811l-2.709,3.388c-.2.259.15.627.372.368l2.737-3.234c.457-.534.958-1.023,1.451-1.524a5.391,5.391,0,0,1,.809-.619,8.736,8.736,0,0,0,.809-.74,16.855,16.855,0,0,0,1.35-1.488c.461-.534.962-1.019,1.431-1.544.966-1.071,1.856-2.212,2.778-3.319l-1.856-1.079c-.04.15-.036.166,0,.048.154-.352.489-.3,1,.137.093.19-.166.776.028.518l-.4.4-.105.032-.837-1.989a4.358,4.358,0,0,0-1.245,1.172,2.427,2.427,0,0,0-.3.619,2.978,2.978,0,0,1-.344.691.045.045,0,0,0,.04.069Z" transform="translate(-102.128 -114.338)" fill="#fff"/>
      <path id="Path_24" data-name="Path 24" d="M101.547,183.69a7.573,7.573,0,0,1-2.648.659,8.622,8.622,0,0,1-1.213,0c-.461-.028-.885-.23-1.363-.235-1.92,0-3.784,1.33-5.224,2.474a5.643,5.643,0,0,0-2.511,4.617,6.164,6.164,0,0,0,2.875,4.633,14.886,14.886,0,0,0,5.515,1.848c.76.133,2.547-.089,2.07-1.282-.4-1.015-1.827-1.1-2.741-1.3-1.666-.36-3.505-.845-4.609-2.244a2.753,2.753,0,0,1,0-3.675A11.158,11.158,0,0,1,96.5,186c.465-.17.853-.5,1.326-.623s.982-.222,1.488-.311a5.175,5.175,0,0,0,2.482-1.047c.194-.158-.053-.424-.255-.327Z" transform="translate(-54.616 -109.406)" fill="#fff"/>
      <path id="Path_25" data-name="Path 25" d="M99.584,183.985a1.527,1.527,0,0,1-.429,0h0c-.057.04-.1,0-.125-.133a2.179,2.179,0,0,0-.74-.4,6.294,6.294,0,0,0-1.666-.3,8.32,8.32,0,0,0-3.162.445,10.973,10.973,0,0,0-5.123,3.437c-1.536,1.892-2.377,4.245-1.3,6.57a7.539,7.539,0,0,0,5.086,3.845,12.819,12.819,0,0,0,2.1.348,19.547,19.547,0,0,0,2.022-.061c.748,0,1.451-.218,2.191-.186a6.527,6.527,0,0,0,2.175-.032.574.574,0,0,0,0-1.1,5.065,5.065,0,0,0-1.694-.206,4.867,4.867,0,0,1-.768-.04,8.734,8.734,0,0,1-.914-.259c-.513-.117-1.063-.1-1.581-.21s-1.079-.234-1.637-.315c-1.747-.263-3.61-.857-4.593-2.406a2.83,2.83,0,0,1-.481-2.021,5.106,5.106,0,0,1,1.189-2.357,8.672,8.672,0,0,1,4.189-2.773,12.179,12.179,0,0,1,2.83-.473,3.156,3.156,0,0,0,1.714-.352,3.714,3.714,0,0,0,.4-.485,1.819,1.819,0,0,0,.4-.437.065.065,0,0,0-.057-.1Z" transform="translate(-53.409 -109.092)" fill="#fff"/>
      <path id="Path_26" data-name="Path 26" d="M107.7,181.9a4.446,4.446,0,0,0,.72-.146,1.7,1.7,0,0,1,.809.109l-.271-.162a2.223,2.223,0,0,0,.4.311,1.844,1.844,0,0,0,.59.154,6.067,6.067,0,0,0,1.084,0,7.352,7.352,0,0,0,1.965-.3,2.256,2.256,0,0,0,.885-.53,6.557,6.557,0,0,0,.449-.619c.17-.214.4-.34.554-.542a4.964,4.964,0,0,0,.513-.72.4.4,0,0,0-.611-.473.627.627,0,0,0-.2.3.23.23,0,0,0,.1.247.461.461,0,0,0,.267.109l-.23-.57a2.135,2.135,0,0,1-.5.53,3.406,3.406,0,0,1-.323.21l-.1.057c-.121.065-.133.073-.032,0a5.3,5.3,0,0,0-1.472.121,9.088,9.088,0,0,1-1.548.247,8.032,8.032,0,0,0-.934.093,1.779,1.779,0,0,0-.873.481l.271-.158c-.477.2-1.694.437-1.617,1.152a.081.081,0,0,0,.077.077Z" transform="translate(-65.946 -106.571)" fill="#fff"/>
      <path id="Path_27" data-name="Path 27" d="M112.952,180.454c.154-.061.327-.073.485-.121s.3-.081.449-.113a6.78,6.78,0,0,1,.986-.162,4.573,4.573,0,0,0,3.234-1.617,4.653,4.653,0,0,0,.522-.756,2.059,2.059,0,0,0,.162-.4.752.752,0,0,0,0-.453.19.19,0,0,0-.275-.113,1.767,1.767,0,0,0-.55.582,5.147,5.147,0,0,1-1.872,1.617,6.985,6.985,0,0,1-.809.3c-.3.1-.582.243-.885.348a7.75,7.75,0,0,0-.809.34,2.632,2.632,0,0,0-.36.2,2.483,2.483,0,0,0-.311.307v.04Z" transform="translate(-69.114 -105.249)" fill="#fff"/>
      <path id="Path_28" data-name="Path 28" d="M295.06,169.213a1.945,1.945,0,0,0,2.531.582l-.513-.513a2.652,2.652,0,0,0-.594,1.718,1.411,1.411,0,0,0,.893,1.193,1.892,1.892,0,0,0,1.156-.1l.469-.137a2.313,2.313,0,0,0,.376-.2c.032,0,.372-.182.218-.109.17-.077.178.044.053,0,.3.158-.481-.186-.425-.178-.117,0,.024-.243-.02.028.032-.19.02.178.02.194a2.531,2.531,0,0,0,.849,1.791,3.364,3.364,0,0,0,3.918,0c1.229-.7,2.426-1.557,3.7-2.268s2.458-1.338,3.708-1.965,2.523-1.189,3.809-1.734a26.182,26.182,0,0,1,3.934-1.5,6.873,6.873,0,0,1,4.472.315,13.192,13.192,0,0,1,3.679,2.551,1.1,1.1,0,0,0,1.694-.218c.546-.809,1-1.654,1.5-2.478s1.039-1.7,1.577-2.539q1.585-2.482,3.234-4.9l-2.022-1.193c-1.265,2.547-2.515,5.1-3.788,7.649a11.1,11.1,0,0,0-1.532,3.853,3.092,3.092,0,0,0,.4,1.8,2.043,2.043,0,0,0,1.641.809l-.372-.1.113.061a.764.764,0,0,0,.772,0c2.272-1.464,3.093-4.277,3.922-6.7.477-1.395,1.031-2.765,1.637-4.108.15-.336.319-.667.469-1.007a7.806,7.806,0,0,0,.251-1.136,7.894,7.894,0,0,1,.453-1.019,12.154,12.154,0,0,0,.429-1.185.493.493,0,0,0-.809-.473,12.257,12.257,0,0,0-1.346,1.714,8.338,8.338,0,0,1-.7.76,4.68,4.68,0,0,0-.59,1.047,37.283,37.283,0,0,0-1.751,4.193c-.809,2.313-1.282,4.771-2.879,6.711l.744-.194c.146.024.109.206.158.077.02-.049-.04-.194-.057-.243-.073-.234-.186-.38-.226-.57a2.021,2.021,0,0,1,.186-1.075c.445-1.108,1.079-2.163,1.617-3.234,1.092-2.151,2.208-4.29,3.3-6.436a1.181,1.181,0,0,0-2.021-1.193c-1.132,1.617-2.224,3.234-3.234,4.908a44.852,44.852,0,0,0-2.9,5.114l1.476-.384c-2.155-1.3-4.427-2.9-7.031-3a14.685,14.685,0,0,0-4.136.679c-1.354.344-2.583.7-3.845,1.144a48.657,48.657,0,0,0-7.484,3.388c-1.181.663-2.288,1.443-3.469,2.1a1.342,1.342,0,0,1-.962.235c.17.061-.186-.105-.174-.1a.225.225,0,0,1,.093.121,2.432,2.432,0,0,1-.057-.247v-.073a3.23,3.23,0,0,0-.057-.437,1.674,1.674,0,0,0-2.955-.809,4.344,4.344,0,0,0-.457.578c-.057.1-.113.376-.23.445-.214.125-.38-.117-.437-.3a1.791,1.791,0,0,1,.336-1.213c.178-.344-.186-.744-.513-.513a1.924,1.924,0,0,1-2.1,0,.044.044,0,0,0-.057.061Z" transform="translate(-177.615 -92.844)" fill="#fff"/>
      <path id="Path_29" data-name="Path 29" d="M419.905,161.311c-.712-.623-1.617.065-2.021.744a8.331,8.331,0,0,0-.651,1.791,14.608,14.608,0,0,0-.489,2.066,12.081,12.081,0,0,0,1.213,7.447,12.765,12.765,0,0,0,5.119,4.945,24.314,24.314,0,0,0,6.841,2.656,44.473,44.473,0,0,0,8.135,1.047c.34,0,.327-.489,0-.522a37.033,37.033,0,0,1-12.533-3.534,14.8,14.8,0,0,1-5.147-3.6,8.9,8.9,0,0,1-1.646-5.66,23.984,23.984,0,0,1,.352-3.95c.1-.639.243-1.274.344-1.912.04-.243.044-.5.1-.74.04-.178.166-.542.356-.615a.105.105,0,0,0,.044-.174Z" transform="translate(-250.014 -95.942)" fill="#fff"/>
      <path id="Path_30" data-name="Path 30" d="M417.48,168.335a8.285,8.285,0,0,0,1.908-2.608c.522-.9,1.075-1.941,1.569-2.931q1.468-2.939,2.915-5.883c.962-1.965,1.928-3.926,2.87-5.9s2-3.978,2.871-6.02a17.992,17.992,0,0,0,1.241-3.445,9.326,9.326,0,0,1,.611-1.787c.259-.623.489-1.257.756-1.876.137-.323-.3-.606-.481-.283a28.883,28.883,0,0,1-1.7,2.854c-.323.445-.72.809-1.015,1.274s-.582.982-.869,1.476c-1.1,1.892-2.021,3.873-3.012,5.822-2,3.93-3.942,7.888-5.866,11.85-.542,1.12-1.1,2.232-1.573,3.38-.239.586-.5,1.168-.7,1.763a5.349,5.349,0,0,0-.429,1.8c0,.4.522.809.91.517Z" transform="translate(-249.998 -81.878)" fill="#fff"/>
      <path id="Path_31" data-name="Path 31" d="M268.406,172.62l.024.036-.053-.4a1.85,1.85,0,0,0-.036.4.509.509,0,0,0,.505.505.526.526,0,0,0,.36-.15.594.594,0,0,0,.146-.356v.065c.048-.291.154-.57.218-.861.032-.142.065-.287.1-.429a3.861,3.861,0,0,0,.057-.526.4.4,0,0,0-.768-.206,2.751,2.751,0,0,0-.247.5c-.044.142-.093.283-.133.424-.089.291-.117.6-.214.894l.978.271a1.066,1.066,0,0,1,.069-.247l-.372.372h.032a.679.679,0,0,0,.3-.206.581.581,0,1,0-.962-.061Z" transform="translate(-161.695 -101.543)" fill="#fff"/>
      <path id="Path_32" data-name="Path 32" d="M295.151,188.86a.808.808,0,0,0,.15-.141l-.222.093.247.032a1.039,1.039,0,0,0,.9-.513,1.378,1.378,0,0,0,.158-.352,1.035,1.035,0,0,0-.376-1.108,1.059,1.059,0,0,0-1.172-.085,1.978,1.978,0,0,1-.182.1l.251-.109a1.783,1.783,0,0,1-.429.121l.279-.036a1.98,1.98,0,0,1-.489,0l.275.036a1.447,1.447,0,0,0-.683,0l-.085.032a1.213,1.213,0,0,0-.542.4h.5s-.1-.085-.089-.069l-.5.5a.877.877,0,0,0,.218.1,1,1,0,0,1,.158.032.356.356,0,0,0,.433-.558c.036.04-.057-.085-.069-.1a1.077,1.077,0,0,0-.17-.133c-.024-.02-.02,0,0,0l-.049-.04-.089-.085c-.069-.065-.138-.117-.2-.186s-.057-.061-.085-.089,0,.032-.036-.044c-.1-.137-.2-.271-.287-.4a4.693,4.693,0,0,1-.218-.453.17.17,0,0,0-.287,0,1.451,1.451,0,0,0,.061,1.314,1.808,1.808,0,0,0,.477.582c.081.057.162.109.247.158a.876.876,0,0,0,.222.085.312.312,0,0,0,.15,0q.17-.036.073,0l.1-.7a1.333,1.333,0,0,1-.17-.085.913.913,0,0,0-.3-.081.364.364,0,0,0-.352.271.372.372,0,0,0,.166.4l.065.04.1.077-.162-.4a1.048,1.048,0,0,0-.028.611,1.175,1.175,0,0,0,.255.433,1.128,1.128,0,0,0,.538.356,2.426,2.426,0,0,0,.683.073,2.8,2.8,0,0,0,1.31-.356l-1.549-1.189a1.214,1.214,0,0,0-.061.4,1.027,1.027,0,0,0,.513.9l.117.069-.158-.275a1.558,1.558,0,0,0,.036.271.218.218,0,0,0,.356.093Z" transform="translate(-175.984 -110.631)" fill="#fff"/>
      <text id="STUDIOS" transform="translate(85.19 96.685)" fill="#fff" font-size="12" font-family="ShreeDev0714, 'Shree Devanagari \37 14'" letter-spacing="0.11em"><tspan x="0" y="0">STUDIOS</tspan></text>
    </g>
  </g>
</svg>
